# xmcd CD database file generated by MAGIX-FreeDB-MP3_Maker_15 v2.0beta1
# 
# Track frame offsets:
#      150
#      11912
#      23732
#      36087
#      53252
#      63915
#      82700
#      94547
#      107522
#      125712
#      142597
#      156382
#      169852
#      183642
# 
# Disc length: 2600 seconds
# 
# Revision: 1 
# Processed by: cddbd v1.5.2PL0 Copyright (c) Steve Scherf et al.
# Submitted via: MAGIX-FreeDB-MP3_Maker_15 v2.0beta1
# 
DISCID=a40a260e
DTITLE=Johnny Cash - Country Legends - Johnny Cash
DYEAR=2004
DGENRE=Country
TTITLE0=Johnny Cash - Ring Of Fire
TTITLE1=Johnny Cash - Folsom Prison Blues
TTITLE2=Johnny Cash - Understand Your Man
TTITLE3=Johnny Cash - A Boy Named Sue (Live)
TTITLE4=Johnny Cash - Daddy Sang Bass
TTITLE5=Johnny Cash - Sunday Morning Coming Down
TTITLE6=Johnny Cash - Flesh And Blood
TTITLE7=Johnny Cash - Man In Black
TTITLE8=Johnny Cash - One Piece At A Time
TTITLE9=Johnny Cash - (Ghost) Riders In The Sky
TTITLE10=Johnny Cash - Highwayman
TTITLE11=Johnny Cash - If I Were A Carpenter
TTITLE12=Johnny Cash - Don't Take Your Guns To Town
TTITLE13=Johnny Cash - A Thing Called Love
EXTD=
EXTT0=
EXTT1=
EXTT2=
EXTT3=
EXTT4=
EXTT5=
EXTT6=
EXTT7=
EXTT8=
EXTT9=
EXTT10=
EXTT11=
EXTT12=
EXTT13=
PLAYORDER=
